<svg width="32" height="32" viewBox="0 0 32 32" fill="none" xmlns="http://www.w3.org/2000/svg">
<path fill-rule="evenodd" clip-rule="evenodd" d="M12 7H12.4142H28.4142H29.4142V8V24V25H28.4142H12.4142H12L11.7071 24.7071L3.70711 16.7071L3 16L3.70711 15.2929L11.7071 7.29289L12 7ZM12.8284 9L5.82843 16L12.8284 23H27.4142V9H12.8284ZM16.4142 11.5858L17.1213 12.2929L19.4142 14.5858L21.7071 12.2929L22.4142 11.5858L23.8284 13L23.1213 13.7071L20.8284 16L23.1213 18.2929L23.8284 19L22.4142 20.4142L21.7071 19.7071L19.4142 17.4142L17.1213 19.7071L16.4142 20.4142L15 19L15.7071 18.2929L18 16L15.7071 13.7071L15 13L16.4142 11.5858Z" fill="white"/>
</svg>
